# xmcd
# Track frame offsets:
# 200
# 9615
# 22627
# 36795
# 51645
# 65507
# 77957
# 87725
# 97770
# 109902
# 129722
# 140160
#
# Disc length: 2038 seconds
# Revision: 0
# Processed by: cddbd v1.4PL0 Copyright (c) Steve Scherf et al.
# Submitted via: VisiTrax 2.9.5.180 - For more info visit www.synapsa.com
#
DISCID=a507f40c
DTITLE=Rhonda Vincent - A Dream Come True
DYEAR=1990
DGENRE=Bluegrass
TTITLE0=Kentucky Sweetheart
TTITLE1=We Were Almost Like A Dream Come True
TTITLE2=Lone Star State Of Mind
TTITLE3=Mama's  Angels
TTITLE4=Wishing Well Blues
TTITLE5=Just For Old Times Sake
TTITLE6=Break My Heart
TTITLE7=A Far Cry From You
TTITLE8=Love Without A Trace
TTITLE9=Goin' Gone
TTITLE10=Till I'm Fool Enough
TTITLE11=Sundown
EXTD=Rebel Records
EXTT0=
EXTT1=
EXTT2=
EXTT3=
EXTT4=
EXTT5=
EXTT6=
EXTT7=
EXTT8=
EXTT9=
EXTT10=
EXTT11=
PLAYORDER=
